<svg aria-hidden="true" style="position:absolute;width:0;height:0;overflow:hidden" xmlns="http://www.w3.org/2000/svg"><defs><symbol id="icon-Group-2" viewBox="0 0 21 32"><path fill="#aad4c8" style="fill:var(--color1, #aad4c8)" d="M19.953 8.588s-.179-6.292-.186-6.367a1.138 1.138 0 0 0-.73-.95L17.15.54c-.289-.109-.606-.102-.889.02s-.503.348-.613.635l-1.288 3.3a9.091 9.091 0 0 0-.599-.123V3.129C13.761 1.407 12.349 0 10.607 0S7.453 1.401 7.453 3.129v1.243c-.2.034-.399.075-.599.123l-1.288-3.3C5.456.908 5.235.683 4.953.56S4.354.43 4.064.54l-1.887.724a1.14 1.14 0 0 0-.731.936c-.007.082-.186 6.388-.186 6.388A8.754 8.754 0 0 0 0 13.124v16.943c0 1.073.875 1.94 1.956 1.94h17.301a1.947 1.947 0 0 0 1.956-1.94V13.124c0-1.66-.461-3.211-1.26-4.536zm-1.074-1.442a8.238 8.238 0 0 0-.647-.635l.585-1.496.062 2.132zm-2.266-5.582a.133.133 0 0 1 .165-.075l1.88.724c.041.014.062.048.069.068s.021.055 0 .096L17.37 5.841a9.029 9.029 0 0 0-2.025-1.052l1.267-3.225zm-6.006-.539c1.054 0 1.935.765 2.094 1.769a3.17 3.17 0 0 0-4.188-.006 2.12 2.12 0 0 1 2.094-1.763zm1.928 3.231H8.678c.103-.225.248-.43.427-.615a2.125 2.125 0 0 1 1.501-.615c.847 0 1.591.499 1.928 1.23zM2.479 2.282a.11.11 0 0 1 .069-.068l1.88-.724c.069-.027.138.007.165.075l1.26 3.225a9.13 9.13 0 0 0-2.018 1.052L2.478 2.385a.167.167 0 0 1 0-.102zm-.082 2.726.585 1.496a9.487 9.487 0 0 0-.647.635l.062-2.132zM20.18 30.06a.918.918 0 0 1-.923.915H1.956a.92.92 0 0 1-.923-.915V13.117c0-4.325 3.547-7.843 7.914-7.843h3.327c4.36 0 7.907 3.518 7.907 7.843V30.06z"/><path fill="#aad4c8" style="fill:var(--color1, #aad4c8)" d="M3.595 17.332c-.833 0-1.515.676-1.515 1.503v9.653c0 .827.675 1.503 1.515 1.503h14.016c.833 0 1.515-.676 1.515-1.503v-9.653c0-.827-.682-1.503-1.515-1.503H3.595zm14.023 11.635H3.595a.481.481 0 0 1-.482-.478v-6.442h13.004v1.168h1.033v-1.168h.937v6.442a.466.466 0 0 1-.468.478zm.475-10.132v2.193H3.12v-2.193a.48.48 0 0 1 .482-.478h14.016c.262 0 .475.212.475.478zM13.885 7.378H7.328v2.924h6.557V7.378zm-1.033 1.906H8.361v-.881h4.491v.881z"/></symbol><symbol id="icon-Group-1" viewBox="0 0 34 32"><path fill="#aad4c8" style="fill:var(--color1, #aad4c8)" d="M15.598 16.193c-.418.072-1.028.446-1.912 1.024-.478.301-1.195.771-1.339.807a738.24 738.24 0 0 1-3.956-1.036c-.108-.036-.215-.012-.311.048s-.155.157-.167.265l-.944 6.108a.397.397 0 0 0 .287.434l3.096.843a1.212 1.212 0 0 0-.06 1.241c.275.53.861.916 1.458.964.036.06.072.133.12.193.347.47.932.771 1.518.783.048.084.108.181.179.265.347.422.884.687 1.41.723.048.108.12.205.191.301a1.74 1.74 0 0 0 1.327.639c.442 0 .825-.193 1.064-.542.131-.193.801-1.374.801-1.374.227.096.359.157.37.157.634.253 1.291-.084 1.554-.771.048-.12.072-.241.096-.361.669.253 1.446-.108 1.709-.771.084-.217.108-.446.084-.663.12-.024 4.638-1.301 4.638-1.301a.377.377 0 0 0 .275-.434l-1.1-6.928c-.012-.108-.084-.205-.167-.265s-.203-.084-.311-.048l-3.837.988c-.179-.048-.693-.301-2.068-1.133-1.159-.699-1.482-.88-1.817-.88-.406 0-1.255.446-1.841.795a.552.552 0 0 0-.347-.072zm9.407 1.602.873 5.47-1.661.47c.167-.181.299-.386.394-.627a1.524 1.524 0 0 0-.49-1.735c-.012-.012-2.928-1.663-5.211-3.084a.4.4 0 0 0-.203-.06l-.705.024a.362.362 0 0 0-.155.036c-.813.386-.896.699-.92.807-.072.277-.418 1.554-.598 2.217-.406.072-1.207-.301-1.339-.578.048-.217.108-.518.167-.843.131-.699.311-1.578.383-1.867.167-.325 1.9-1.361 2.211-1.41.155.036.777.41 1.279.711 1.303.783 2.199 1.301 2.749 1.301.227-.012 2.39-.627 3.227-.831zm-8.499 10.868a.64.64 0 0 1-.454-.229.435.435 0 0 1-.084-.361.398.398 0 0 0-.143-.398.42.42 0 0 0-.227-.072.376.376 0 0 0-.191.048c-.287.157-.741.012-.98-.265-.072-.084-.143-.205-.12-.349a.383.383 0 0 0-.609-.374.46.46 0 0 1-.263.072c-.239 0-.526-.133-.657-.325-.108-.157-.072-.265-.072-.301a.404.404 0 0 0-.143-.434.375.375 0 0 0-.454.012c-.215.157-.526.06-.729-.157-.096-.096-.108-.169-.108-.181l.645-.964c.096-.157.359-.012.514.181.084.096.108.169.096.205a.394.394 0 0 0 .263.422.38.38 0 0 0 .454-.169c.251-.422.466-.651.61-.687a.693.693 0 0 1 .633.229c.12.133.167.265.167.337-.012.181.108.337.275.386s.347-.024.442-.169c.311-.518.944-.253 1.171.084.06.096.096.193.072.253a.397.397 0 0 0 .131.47.38.38 0 0 0 .49-.036c.155-.133.526 0 .657.229.072.133.06.265-.024.422-.131.205-1.076 1.892-1.231 2.108-.024.012-.096.012-.131.012z"/><path fill="#aad4c8" style="fill:var(--color1, #aad4c8)" d="M17.534 5.807a.775.775 0 0 0-1.016 0L4.852 15.952a.78.78 0 0 0-.263.59v14.675c0 .434.347.783.777.783h23.331c.43 0 .777-.349.777-.783V16.542a.778.778 0 0 0-.263-.59L17.533 5.807zm10.387 24.627H6.144v-13.53l10.889-9.47 10.889 9.47v13.53z"/><path fill="#aad4c8" style="fill:var(--color1, #aad4c8)" d="M33.527 13.795 18.037.373a1.534 1.534 0 0 0-2.02 0L.539 13.795A1.585 1.585 0 0 0 .372 16a1.554 1.554 0 0 0 2.187.169L17.033 3.615l14.474 12.542c.287.253.645.373 1.004.373.43 0 .873-.181 1.171-.542a1.56 1.56 0 0 0-.155-2.193z"/></symbol><symbol id="icon-Group" viewBox="0 0 36 32"><path fill="#616e7d" style="fill:var(--color2, #616e7d)" d="M.651 31.109a2.23 2.23 0 0 0 1.569.656h31.299a2.23 2.23 0 0 0 2.22-2.233V11.056H-.001v18.471c0 .588.238 1.165.651 1.582zM28.54 12.555h5.116v4.588H28.54v-4.588zm0 5.857h5.116v4.583H28.54v-4.583zm-6.618-5.857h5.116v4.588h-5.116v-4.588zm0 5.857h5.116v4.583h-5.116v-4.583zm0 5.852h5.116v4.583h-5.116v-4.583zM15.31 12.555h5.116v4.588H15.31v-4.588zm0 5.857h5.116v4.583H15.31v-4.583zm0 5.852h5.116v4.583H15.31v-4.583zM8.692 12.555h5.116v4.588H8.692v-4.588zm0 5.857h5.116v4.583H8.692v-4.583zm0 5.852h5.116v4.583H8.692v-4.583zm-6.613-5.852h5.116v4.583H2.079v-4.583zm0 5.852h5.116v4.583H2.079v-4.583z"/><path fill="#aad4c8" style="fill:var(--color1, #aad4c8)" d="M35.731 8.927H0v1.322h35.731V8.927zM3.673 2.571H2.215a2.23 2.23 0 0 0-1.569.656A2.27 2.27 0 0 0 0 4.804v2.595h35.731V4.804c0-.588-.238-1.161-.651-1.577s-.981-.656-1.564-.656h-3.761v2.923a.985.985 0 0 1-.981.989h-2.065a.986.986 0 0 1-.981-.989V2.571H10.005v2.923a.985.985 0 0 1-.982.989H6.958a.982.982 0 0 1-.981-.989V2.571H3.674z"/><path fill="#82bfab" style="fill:var(--color3, #82bfab)" d="M35.731 7.399H0v1.528h35.731V7.399z"/><path fill="#616e7d" style="fill:var(--color2, #616e7d)" d="M6.958 5.494h2.065V0H6.958v5.494zM26.708 5.494h2.07V0h-2.07v5.494z"/><path fill="#82bfab" style="fill:var(--color3, #82bfab)" d="M13.808 12.555H8.692v4.588h5.116v-4.588zM20.426 12.555H15.31v4.588h5.116v-4.588zM27.038 12.555h-5.116v4.588h5.116v-4.588zM33.656 12.555H28.54v4.588h5.116v-4.588zM7.196 18.412H2.08v4.583h5.116v-4.583zM13.808 18.412H8.692v4.583h5.116v-4.583zM20.426 18.412H15.31v4.583h5.116v-4.583z"/><path fill="#aad4c8" style="fill:var(--color1, #aad4c8)" d="M27.038 18.412h-5.116v4.583h5.116v-4.583z"/><path fill="#82bfab" style="fill:var(--color3, #82bfab)" d="M33.656 18.412H28.54v4.583h5.116v-4.583zM7.196 24.264H2.08v4.583h5.116v-4.583z"/><path fill="#aad4c8" style="fill:var(--color1, #aad4c8)" d="M13.808 24.264H8.692v4.583h5.116v-4.583z"/><path fill="#82bfab" style="fill:var(--color3, #82bfab)" d="M20.426 24.264H15.31v4.583h5.116v-4.583zM27.038 24.264h-5.116v4.583h5.116v-4.583z"/></symbol></defs></svg>